<?xml version="1.0" encoding="utf-8"?>
<!-- Generator: Adobe Illustrator 27.5.0, SVG Export Plug-In . SVG Version: 6.00 Build 0)  -->
<svg version="1.1" id="_x3C_Layer_x3E_" xmlns="http://www.w3.org/2000/svg" xmlns:xlink="http://www.w3.org/1999/xlink" x="0px"
	 y="0px" viewBox="0 0 2760 1840" style="enable-background:new 0 0 2760 1840;" xml:space="preserve">
<rect style="fill:#FFFFFF;" width="2760" height="1840"/>
<g>
	<g>
		<path style="fill:#DEEBE9;" d="M2599.656,413.072v994.033c0,159.398-142.188,266.911-313.982,288.612
			c-44.256,5.591-88.793,9.433-135.894,11.738c-11.053,0.549-22.251,1.007-33.623,1.382c-22.215,0.732-45.078,1.152-68.802,1.281
			c-68.813,0.375-144.896-1.702-233.561-5.719c-34.476-1.564-70.861-3.422-109.453-5.544c-73.77-4.063-155.637-9.086-247.769-14.868
			c-31.521-1.976-67.257-3.266-106.113-3.988h-0.01c-18.563-0.348-37.84-0.568-57.694-0.678c-0.009,0-0.009,0-0.019,0
			c-105.646-0.595-227.897,1.94-348.329,5.179c-6.367,0.165-12.726,0.339-19.075,0.513c-86.99,2.405-172.499,5.114-249.545,7.219
			h-0.009c-10.531,0.283-20.906,0.566-31.099,0.833c-11.737,0.292-23.248,0.585-34.501,0.841
			c-38.382,0.906-73.725,1.556-104.95,1.812c-173.405,1.418-313.992-129.214-313.992-288.612V413.072
			c0-159.397,140.879-297.989,313.992-288.611c160.761,8.71,397.212,43.175,643.701,22.068
			c293.168-25.105,849.613-46.433,1136.743-22.068C2458.346,139.109,2599.656,253.675,2599.656,413.072z"/>
	</g>
	<g style="opacity:0.6;">
		<path style="fill:#B2C9C6;" d="M1352.88,1032.105c0,0,195.91-693.703,382.148-633.472
			c186.237,60.231-234.272,435.756-284.906,639.504L1352.88,1032.105z"/>
	</g>
	<g>
		<g>
			<g>
				<path style="fill:#B2C9C6;" d="M2423.746,1319.385c-84.493,48.925-25.096,181.549-136.818,189.396
					c-111.748,7.787-105.3-1.603-140.596,59.401c0,0-5.382,49.7-44.219,70.188c-153.236,80.838-452.709-87.797-325.915-274.766
					c9.155-13.501,25.78-22.919,44.504-32.363c101.589-51.159,150.739-12.799,194.382-166.006
					c43.66-153.25,216.281-9.335,285.965-38.812s125.968-71.359,206.355-13.359
					C2587.82,1171.126,2508.266,1270.52,2423.746,1319.385z"/>
			</g>
		</g>
		<g style="opacity:0.5;">
			<g>
				<g>
					<path style="fill:#74A1BD;" d="M1884.255,1521.682l-5.044-3.971c1.748-2.225,180.537-224.457,648.023-387.21l2.113,6.066
						C2063.615,1298.711,1885.998,1519.47,1884.255,1521.682z"/>
				</g>
			</g>
			<g>
				<g>
					<path style="fill:#74A1BD;" d="M2271.273,1257.284c-9.387-3.806-14.68-6.54-14.92-6.667l2.994-5.68
						c1.109,0.586,112.625,58.053,235.775,14.246l2.149,6.047C2398.041,1300.531,2306.248,1271.466,2271.273,1257.284z"/>
				</g>
			</g>
			<g>
				<g>
					<path style="fill:#74A1BD;" d="M2377.889,1378.949c-38.577-22.521-56.868-51.553-65.418-71.94
						c-9.306-22.192-9.423-38.901-9.427-39.603l6.425-0.008c0.002,0.644,1.025,64.772,71.661,106.005L2377.889,1378.949z"/>
				</g>
			</g>
		</g>
	</g>
	<g>
		<g>
			<path style="fill:#B2C9C6;" d="M929.017,701.653c-18.739,7.931-26.833,4.336-29.941-3.009
				c-3.108-7.345-0.055-15.658,18.685-23.589c34.136-14.447,56.264-8.131,56.264-8.131S963.649,686.996,929.017,701.653z"/>
		</g>
		<g>
			<g>
				<g>
					<path style="fill:#B2C9C6;" d="M858.306,1171.464l-3.763-0.832c0.127-0.578,12.678-59.014,4.183-148.138
						c-7.843-82.233-35.719-208.164-124.005-341.1l3.207-2.131c88.774,133.669,116.781,260.324,124.646,343.037
						C871.102,1111.98,858.434,1170.878,858.306,1171.464z"/>
				</g>
			</g>
			<g>
				<g>
					<path style="fill:#B2C9C6;" d="M820.509,843.315l-2.945-2.481c90.11-106.965,63.649-254.668,63.371-256.148l3.785-0.711
						C885,585.472,911.818,734.928,820.509,843.315z"/>
				</g>
			</g>
			<g>
				<g>
					<path style="fill:#B2C9C6;" d="M771.136,773.813c-38.787-5.09-65.551-28.354-65.855-28.624l2.548-2.886
						c0.34,0.299,34.648,30.056,81.482,28.582l0.122,3.85C783.097,774.934,776.976,774.579,771.136,773.813z"/>
				</g>
			</g>
			<g>
				<g>
					<path style="fill:#B2C9C6;" d="M734.963,659.771c17.813,20.874,18.191,31.28,12.126,36.457
						c-6.067,5.177-16.283,3.165-34.096-17.71c-32.447-38.027-37.144-65.778-37.144-65.778S702.044,621.19,734.963,659.771z"/>
				</g>
			</g>
			<g>
				<g>
					<path style="fill:#B2C9C6;" d="M717.141,734.188c23.278,14.532,26.776,24.34,22.553,31.106
						c-4.224,6.765-14.571,7.927-37.849-6.606c-42.401-26.475-55.247-51.519-55.247-51.519S674.121,707.328,717.141,734.188z"/>
				</g>
			</g>
			<g>
				<g>
					<path style="fill:#B2C9C6;" d="M818.172,718.111c2.024,20.248-3.808,26.912-11.743,27.707
						c-7.936,0.792-14.972-4.587-16.995-24.835c-3.688-36.883,8.9-56.146,8.9-56.146S814.432,680.69,818.172,718.111z"/>
				</g>
			</g>
			<g>
				<g>
					<path style="fill:#B2C9C6;" d="M894.799,569.563c2.869,27.291-2.707,36.084-10.64,36.918
						c-7.931,0.834-15.215-6.608-18.083-33.899c-5.227-49.714,6.609-75.25,6.609-75.25S889.497,519.124,894.799,569.563z"/>
				</g>
			</g>
		</g>
	</g>
	<g>
		<path style="fill:#B2C9C6;" d="M966.264,1262.768c0,0-314.021-666.564-491.691-574.56
			c-177.669,92.004,309.389,400.033,394.655,596.97L966.264,1262.768z"/>
	</g>
	<g>
		<g>
			<g>
				<path style="fill:#CFD3A3;" d="M1050.43,1604.939c-25.416,33.926-62.918,60.824-106.021,79.562
					c-6.367,0.165-12.726,0.339-19.075,0.513c-86.99,2.405-172.499,5.114-249.545,7.219h-0.009
					c-10.375-4.521-20.274-9.726-29.606-15.646v-0.009c-6.954-4.4-13.596-9.214-19.863-14.419
					c-5.599-4.647-10.292-9.809-14.219-15.233c-24.024-33.139-19.697-76.396-19.697-76.396
					c-25.856-78.867-20.705-66.479-147.595-102.591c-90.962-25.947-64.923-104.465-74.448-175.171v-0.019
					c-0.183-1.309-0.366-2.607-0.576-3.915v-0.009c-4.09-26.46-13.614-51.648-36.652-72.37
					c-24.446-21.959-47.42-48.574-65.279-76.497c0-0.01-0.009-0.01-0.009-0.01c-1.473-2.314-2.919-4.639-4.328-6.971
					c-34.511-57.146-46.633-118.547-5.736-156.086l0.009-0.01c0.97-0.887,1.958-1.748,2.982-2.599
					c7.173-6.02,15.81-11.362,26.057-15.91c106.726-47.319,161.411,14.621,234.559,65.509c40.43,28.125,129.982,2.846,204.2,6.23
					h0.047c1.06,0.037,2.113,0.092,3.164,0.155c51.209,2.929,94.576,20.247,108.548,79.415c2.022,8.546,3.43,17.961,4.162,28.335
					v0.037c0.119,1.675,0.238,3.321,0.365,4.959c3.029,39.671,8.537,69.204,16.377,91.985c5.655,16.433,12.508,29.36,20.531,40.056
					c10.632,14.19,23.304,24.465,37.888,33.788c13.777,8.811,29.267,16.78,46.359,26.414c8.06,4.547,16.486,9.47,25.251,15.031
					c11.692,7.412,24.008,15.957,36.917,26.269c6.707,5.36,13.11,10.659,18.93,16.048c10.924,10.082,19.753,20.457,24.502,32.058
					c1.437,3.505,2.762,6.981,4.008,10.431C1096.726,1502.313,1084.254,1559.834,1050.43,1604.939z"/>
			</g>
		</g>
		<g>
			<g>
				<g>
					<path style="fill:#C4C695;" d="M905.704,1580.588l6.776-3.352c-1.474-2.988-153.543-302.504-652.75-603.582l-3.908,6.479
						C753.154,1280.083,904.232,1577.616,905.704,1580.588z"/>
				</g>
			</g>
			<g>
				<g>
					<path style="fill:#C4C695;" d="M702.6,1205.231c101.074-21.91,140.077-62.879,141.687-64.61l-5.536-5.152
						c-0.38,0.408-39.264,41.02-137.758,62.37L702.6,1205.231z"/>
				</g>
			</g>
			<g>
				<g>
					<path style="fill:#C4C695;" d="M650.547,1269.458c37.64-22.328,63.088-70.963,73.595-140.646
						c7.87-52.184,4.656-98.471,4.622-98.932l-7.539,0.544c0.129,1.806,12.008,181.19-74.541,232.531L650.547,1269.458z"/>
				</g>
			</g>
			<g>
				<g>
					<path style="fill:#C4C695;" d="M523.911,1181.915c11.742-2.106,18.505-3.973,18.814-4.06l-2.071-7.272
						c-1.421,0.406-143.886,39.55-275.165-40.839l-3.946,6.447C367.323,1200.969,480.163,1189.765,523.911,1181.915z"/>
				</g>
			</g>
			<g>
				<g>
					<path style="fill:#C4C695;" d="M371.503,1296.23c49.926-16.585,78.054-45.6,92.858-67.017
						c16.112-23.315,20.307-42.541,20.479-43.349l-7.401-1.569c-0.158,0.74-16.911,74.395-108.324,104.758L371.503,1296.23z"/>
				</g>
			</g>
		</g>
	</g>
	<g>
		<path style="fill:#9BBCB6;" d="M1350.45,1680c-18.563-0.348-37.84-0.568-57.694-0.678c-0.009,0-0.009,0-0.019,0
			c-105.646-0.595-227.897,1.94-348.329,5.179c-6.367,0.165-12.726,0.339-19.075,0.513
			c-10.632-23.432-45.682-102.407-77.842-194.201v-0.009c-2.662-7.585-5.297-15.252-7.905-23.001v-0.01
			c-5.113-15.179-10.082-30.613-14.803-46.103c-4.31-14.126-8.399-28.298-12.196-42.389c-2.626-9.726-5.104-19.414-7.411-29.013
			c-3.376-14.053-6.395-27.914-8.947-41.445c-1.747-9.269-3.284-18.391-4.574-27.301c-2.068-14.273-3.505-28.024-4.2-41.08
			c-1.317-24.693,0.037-46.881,4.877-65.279v-0.01c0.934-3.56,1.995-6.972,3.193-10.238c0.585-1.592,1.207-3.156,1.857-4.676
			c9.625-22.479,23.248-38.929,39.956-50.576c80.165-55.855,231.455-0.805,354.11,32.059c31.033,8.309,54.94,37.265,73.34,77.859
			c5.772,12.709,10.997,26.561,15.728,41.272c4.29,13.341,8.179,27.384,11.701,41.932c0.485,2.003,0.961,4.017,1.429,6.038
			c3.146,13.468,5.983,27.338,8.545,41.445c1.408,7.74,2.735,15.555,3.97,23.404c1.309,8.234,2.534,16.505,3.669,24.813
			c1.895,13.807,3.569,27.677,5.041,41.465c7.622,70.988,10.037,139.826,10.659,187.576c0.247,18.637,0.22,34.063,0.119,45.151
			C1333.616,1675.014,1341.96,1677.457,1350.45,1680z"/>
	</g>
	<g>
		<g>
			<path style="fill:#436E8E;" d="M2047.355,1710.119c-68.813,0.375-144.896-1.702-233.561-5.719
				c-34.476-1.564-70.861-3.422-109.453-5.544c-77.063-39.287-178.711-52.215-244.612-56.369
				c-5.197-0.329-10.376-0.612-15.527-0.868c-38.225-1.876-79.743-5.526-118.674-14.072
				c-93.432-20.512-171.95-69.277-154.219-189.617c1.894-12.9,4.903-26.624,9.121-41.234c3.056-10.596,6.743-21.657,11.116-33.194
				c1.639-4.337,3.377-8.737,5.207-13.212c4.438-10.814,9.433-22.04,15.031-33.678c0,0,11.647-3.678,35.472-7.768
				c11.912-2.049,26.88-4.199,44.959-6.038c43.166-4.41,104.082-7.063,183.643-2.415c15.646,0.914,34.822,3.787,56.534,8.453
				c38.856,8.344,85.801,22.461,135.005,41.445c29.79,11.492,60.413,24.776,90.56,39.653c23.605,11.638,46.917,24.245,69.323,37.74
				c61.152,36.816,115.555,80.184,150.577,128.171C2009.46,1599.147,2031.371,1650.273,2047.355,1710.119z"/>
		</g>
	</g>
	<g>
		<g>
			<path style="fill:#436E8E;" d="M1813.795,1704.4c-34.476-1.564-70.861-3.422-109.453-5.544
				c-73.77-4.063-155.637-9.086-247.769-14.868c-31.521-1.976-67.257-3.266-106.113-3.988h-0.01
				c-18.563-0.348-37.84-0.568-57.694-0.678c-0.009,0-0.009,0-0.019,0c-81.693-22.891-171.904-41.83-242.308-74.383
				c-76.404-35.316-129.497-86.652-123.111-176.461c0.906-12.873,3.047-26.541,6.514-41.071
				c2.809-11.792,6.506-24.153,11.136-37.118c2.058-5.771,4.309-11.674,6.743-17.694c0,0,3.705,0.997,11.309,2.663
				c14.811,3.257,44.392,9.067,90.065,15.031c35.965,4.703,81.903,9.498,138.463,13.212c6.625,0.439,13.396,0.86,20.313,1.263
				c32.497,1.903,63.961,4.886,94.3,8.93c44.794,5.956,87.155,14.245,126.863,24.795c0.009,0.009,0.009,0,0.009,0
				c24.502,6.514,47.979,13.888,70.412,22.122c15.097,5.535,29.726,11.464,43.898,17.786
				c95.555,42.581,170.038,102.69,221.813,179.133C1787.947,1645.27,1802.522,1673.861,1813.795,1704.4z"/>
		</g>
	</g>
	<g>
		<path style="fill:#6F4975;" d="M998.82,770.483c0,0,156.583-137.846,332.613-97.791c84.061,19.129,148.22,78.34,177.988,196.8
			c32.568,129.604,28.779,323.631,82.371,454.814c0,0-243.696,165.859-629.57,186.056c-53.36,2.792-62.168-42.717-60.64-132.941
			C905.071,1171.49,916.654,903.803,998.82,770.483z"/>
	</g>
	<g>
		<path style="fill:#6F4975;" d="M885.394,801.282l181.067,34.034c0,0,351.799,178.824,440.436,179.563
			c88.636,0.74,90.14-149.273,90.14-149.273s-71.487-121.345-221.317-178.595c-14.074-5.401-28.819-10.204-44.278-14.308
			c-25.953-6.866-52.329-12.883-78.731-13.187C953.824,656.09,885.394,801.282,885.394,801.282z"/>
	</g>
	<g>
		<path style="fill:#2F1A31;" d="M885.394,801.282c-3.917,14.273,34.038,38.092,84.774,53.2
			c50.735,15.108,95.041,15.783,98.958,1.51c3.917-14.273-34.037-38.093-84.773-53.2
			C933.617,787.684,889.312,787.008,885.394,801.282z"/>
	</g>
	<g>
		<g>
			<path style="fill:#E28569;" d="M1330.71,671.47l-0.054-1.931c0.219-0.006,21.98-0.771,30.765-13.679
				c4.56-6.698,4.889-15.572,0.979-26.376c-1.838-5.079-3.579-9.766-5.115-13.901c-10.803-29.072-14.844-39.95-6.059-60.092
				l1.77,0.772c-8.474,19.428-4.802,29.311,6.1,58.647c1.537,4.141,3.279,8.83,5.121,13.917c4.133,11.423,3.729,20.885-1.203,28.126
				c-3.883,5.701-10.713,10.02-19.751,12.488C1336.492,671.289,1330.942,671.464,1330.71,671.47z"/>
		</g>
		<g>
			<path style="fill:#E28569;" d="M1352.112,555.878c0,0-13.961,31.105,0.563,69.706s-16.219,68.136-42.757,48.945
				c-26.537-19.19-41.669,35.942-79.775-15.07C1204.037,624.513,1352.112,555.878,1352.112,555.878z"/>
		</g>
		<g>
			<path style="fill:#F7B686;" d="M1191.747,644.681l29.64-42.312l8.658-12.367l50.927-72.71l-23.114,81.502l-13.88,48.918
				l-3.91,13.78c-3.237,11.409,26.52,34.08,1.147,45.364c-29.045,12.919-81.89-10.593-93.369-41.833
				C1147.846,665.023,1182.169,658.354,1191.747,644.681z"/>
		</g>
		<g>
			<path style="fill:#2F1A31;" d="M1221.584,600.981c-0.081,0.46-0.146,0.922-0.197,1.388c-3.559,27.08,22.387,45.455,22.387,45.455
				l0.204-0.112l13.88-48.918c-8.06-5.004-19.802-10.863-27.813-8.792C1225.857,591.085,1222.692,594.33,1221.584,600.981z"/>
		</g>
		<g>
			<path style="fill:#F7B686;" d="M1359.72,547.421c10.981-52.967-14.919-103.12-57.852-112.021
				c-42.932-8.901-86.638,26.819-97.62,79.786c-10.981,52.967,14.919,103.121,57.852,112.023
				C1305.031,636.11,1348.738,600.388,1359.72,547.421z"/>
		</g>
		<g>
			<path style="fill:#F7B686;" d="M1211.646,531.807c7.062,10.233,19.196,13.648,27.101,7.626c7.906-6.022,8.59-19.198,1.527-29.432
				c-7.062-10.233-19.195-13.648-27.101-7.627C1205.267,508.396,1204.584,521.572,1211.646,531.807z"/>
		</g>
		<g>
			<g>
				<path style="fill:#060633;" d="M1289.311,533.787c0.548-0.032,1.072-0.313,1.397-0.806c0.55-0.83,0.325-1.947-0.504-2.5
					c-0.489-0.324-11.12-8.912-23.948,0.358c-0.81,0.585-1.025,1.693-0.456,2.514c0.567,0.82,1.588,0.833,2.514,0.456
					c9.252-3.774,19.485-0.583,19.894-0.316C1288.545,533.717,1288.934,533.81,1289.311,533.787z"/>
			</g>
		</g>
		<g>
			<path style="fill:#060633;" d="M1271.292,550.318c-1.009,4.19,0.639,8.179,3.678,8.91c3.04,0.732,6.322-2.07,7.331-6.26
				c1.009-4.19-0.639-8.18-3.679-8.911C1275.582,543.325,1272.3,546.129,1271.292,550.318z"/>
		</g>
		<g>
			<g>
				<path style="fill:#060633;" d="M1350.514,556.091c0.519,0.177,1.11,0.117,1.599-0.213c0.824-0.56,1.042-1.677,0.486-2.503
					c-0.328-0.487-6.888-12.477-22.278-8.793c-0.971,0.233-1.594,1.176-1.38,2.151c0.214,0.974,1.151,1.375,2.15,1.378
					c9.992,0.035,18.238,6.884,18.514,7.285C1349.833,555.734,1350.156,555.968,1350.514,556.091z"/>
			</g>
		</g>
		<g>
			<path style="fill:#060633;" d="M1327.556,564.512c-2.528,3.489-2.525,7.806,0.007,9.641c2.532,1.834,6.635,0.492,9.163-2.998
				c2.528-3.489,2.524-7.806-0.007-9.64C1334.187,559.68,1330.085,561.021,1327.556,564.512z"/>
		</g>
		<g>
			<path style="fill:#E28569;" d="M1331.273,459.626c0,0-8.576,32.928-51.307,29.984c-42.731-2.941-75.036,8.697-75.662,39.79
				c-0.627,31.094,53.064,129.451-1.153,143.299c-54.216,13.849-34.022-51.199-89.551-51.864
				c-55.526-0.667-77.269-64.957-5.052-107.672c48.633-28.765,53.133-146.274,189.933-112.85s63.516,132.903,63.516,132.903
				S1323.571,496.356,1331.273,459.626z"/>
		</g>
		<g>
			<path style="fill:#FFFFFF;" d="M1194.223,674.937l-0.205-1.126c9.499-1.722,16.18-6.205,19.855-13.326
				c13.029-25.237-12.658-80.03-31.414-120.038c-3.604-7.688-7.008-14.948-9.891-21.454c-10.019-22.609-6.395-46.354,9.458-61.969
				c17.609-17.345,44.916-20.567,71.262-8.411c14.048,6.482,35.316,12.863,56.862,6.444c12.885-3.838,19.851-10.54,19.92-10.607
				l0.802,0.819c-0.288,0.281-7.196,6.939-20.33,10.867c-12.091,3.617-31.924,5.428-57.733-6.483
				c-25.903-11.951-52.717-8.813-69.978,8.188c-15.741,15.503-19.186,38.189-9.216,60.687c2.878,6.494,6.279,13.75,9.881,21.433
				c18.857,40.224,44.684,95.311,31.396,121.049C1211.043,668.464,1204.09,673.148,1194.223,674.937z"/>
		</g>
		<g>
			<g>
				<path style="fill:#6F4975;" d="M1312.431,575.421c0.467-0.231,0.939-0.5,1.406-0.731c0.633-7.78,2.575-15.957,5.765-23.922
					c-0.319-0.404-1.147-1.245-2.415-2.239C1314.069,557.438,1312.524,566.693,1312.431,575.421z M1311.281,567.374
					c-0.53,3.096-0.864,6.186-1.035,9.227c-0.787,14.593,2.758,27.712,10.641,35.239c0.07,0.05,0.101,0.095,0.17,0.146
					c3.248,3.042,6.955,4.998,11.006,5.847c2.781,0.554,5.64,0.654,8.633,0.194c2.911-0.435,5.823-1.335,8.739-2.702
					c2.403-1.104,4.82-2.517,7.178-4.25c6.96-5.026,13.453-12.542,18.656-21.832c14.842-26.332,15.026-58.98,0.453-72.82
					c-0.936-0.898-1.919-1.727-2.931-2.406c-3.396-2.406-7.213-3.721-11.286-3.99c-1.806-0.114-3.683-0.047-5.554,0.216
					c-2.155,0.331-4.312,0.895-6.475,1.728c-1.166,0.461-2.347,0.998-3.539,1.609c-9.146,4.614-17.903,13.568-24.591,25.402
					c-0.553,0.955-1.067,1.916-1.544,2.884c-0.05,0.068-0.07,0.182-0.127,0.29c0,0,0,0-0.037-0.008
					c-1.004,2.005-1.938,4.059-2.797,6.128C1314.214,554.548,1312.366,561.032,1311.281,567.374z M1375.589,580.786
					c-1.012,2.275-2.173,4.524-3.404,6.724c-4.753,8.475-10.595,15.361-16.806,20.089c-2.236,1.716-4.495,3.117-6.786,4.241
					c-2.802,1.385-5.639,2.299-8.431,2.715c-6.2,0.804-11.835-0.781-16.351-4.818c-0.176-0.107-0.307-0.247-0.477-0.393
					c-7.582-7.242-10.756-20.258-9.498-34.654c0.633-7.78,2.575-15.957,5.765-23.922c0.871-2.143,1.818-4.273,2.916-6.378
					c0.599-1.22,1.227-2.394,1.899-3.6c6.441-11.526,14.858-20.072,23.548-24.298c2.84-1.379,5.677-2.293,8.513-2.74
					c1.871-0.264,3.628-0.311,5.34-0.097c0.963,0.048,1.869,0.203,2.762,0.434c0.038,0.007,0.038,0.007,0.075,0.013
					c2.385,0.603,4.577,1.639,6.611,3.152c0.69,0.506,1.367,1.088,2.039,1.708c12.267,11.658,12.939,38.158,2.354,61.644
					C1375.646,580.68,1375.639,580.718,1375.589,580.786z"/>
			</g>
		</g>
		<g style="opacity:0.3;">
			<path style="fill:#FFFFFF;" d="M1235.22,502.056c-11.914,26.091-8.042,57.559,8.649,70.286
				c16.69,12.727,39.88,1.895,51.795-24.196c11.915-26.09,8.043-57.558-8.648-70.284
				C1270.324,465.134,1247.134,475.965,1235.22,502.056z"/>
		</g>
		<g style="opacity:0.3;">
			<path style="fill:#FFFFFF;" d="M1320.137,541.148c-11.957,26.212-9.816,57.768,4.782,70.483
				c14.598,12.715,36.125,1.771,48.081-24.44c11.958-26.213,9.815-57.769-4.782-70.482
				C1353.62,503.993,1332.094,514.935,1320.137,541.148z"/>
		</g>
		<g>
			<g>
				<path style="fill:#6F4975;" d="M1228.189,517.485c-1.453,8.495-1.508,16.995-0.283,24.821
					c1.97,12.111,7.037,22.692,14.948,29.369c0.502,0.475,1.047,0.918,1.601,1.323c3.64,2.799,7.643,4.611,11.807,5.478
					c2.329,0.476,4.746,0.657,7.221,0.497c1.996-0.086,4.069-0.392,6.175-0.886c13.162-3.344,24.985-14.533,32.466-30.778
					c0.681-1.475,1.33-2.998,1.903-4.531c0.827-2.112,1.542-4.243,2.181-6.388c5.105-17.351,4.09-35.71-2.344-49.44
					c-2.825-6.195-6.827-11.426-11.816-15.194c-7.443-5.548-16.12-7.304-25.291-5.026c-11.857,2.983-22.646,12.445-30.085,26.172
					c-0.795,1.457-1.562,2.997-2.293,4.543c-0.749,1.658-1.463,3.324-2.056,4.972
					C1230.425,507.376,1229.056,512.428,1228.189,517.485z M1279.649,569.656c-3.475,2.359-7.146,4.063-10.885,5.015
					c-1.418,0.342-2.854,0.562-4.233,0.675c-6.47,0.565-12.619-1.188-17.968-5.133c-0.583-0.45-1.167-0.9-1.706-1.381
					c-7.041-6.101-11.588-15.621-13.381-26.497c-2.021-11.81-0.848-25.248,3.796-37.858c0.67-1.867,1.452-3.716,2.266-5.52
					c1.177-2.558,2.478-4.938,3.879-7.225c0.977-1.62,2.022-3.189,3.162-4.627c0.007-0.037,0.013-0.075,0.057-0.107
					c1.875-2.555,3.944-4.882,6.081-6.926c5.159-4.945,10.962-8.422,16.931-9.927c4.066-1.053,8.084-1.143,11.909-0.332
					c3.68,0.746,7.175,2.353,10.381,4.729c4.438,3.362,8.001,7.975,10.565,13.426c6.315,13.05,7.297,30.937,2.225,47.865
					c-0.646,2.182-1.397,4.308-2.263,6.413c-0.44,1.207-0.956,2.401-1.51,3.589c-4.689,10.155-11.424,18.407-18.953,23.569
					C1279.908,569.506,1279.774,569.601,1279.649,569.656z"/>
			</g>
		</g>
		<g>
			<g>
				<path style="fill:#6F4975;" d="M1321.677,552.156c-0.724-0.15-1.397-0.55-1.894-1.174l0,0
					c-0.287-0.373-7.304-8.658-22.322-8.904c-1.752-0.103-3.283-1.516-3.271-3.337c0.013-1.822,1.515-3.284,3.327-3.222
					c18.205-0.032,27.024,10.87,27.426,11.318c1.112,1.43,0.887,3.521-0.542,4.632
					C1323.61,552.141,1322.603,552.349,1321.677,552.156z"/>
			</g>
		</g>
		<g>
			<path style="fill:#2F1A31;" d="M1288.744,606.467c-5.412,0-11.073-1.639-16.707-4.876c-6.179-3.548-10.159-7.754-10.325-7.931
				c-0.981-1.045-0.929-2.687,0.116-3.667c1.043-0.981,2.684-0.93,3.664,0.113l0,0c0.143,0.15,14.354,14.984,29.399,10.237
				c1.366-0.43,2.824,0.327,3.255,1.693c0.43,1.366-0.327,2.823-1.694,3.255C1293.964,606.077,1291.384,606.467,1288.744,606.467z"
				/>
		</g>
	</g>
	<g>
		<g>
			<g>
				<path style="fill:#2F1A31;" d="M2149.78,1707.456c-11.053,0.549-22.251,1.007-33.623,1.382l-27.539-304.531l-3.706-40.943
					l-1.181-13.074l-3.101-34.327l54.355,26.917l0.301,7.41l0.221,5.5l0.009,0.229l1.674,41.161L2149.78,1707.456z"/>
			</g>
		</g>
		<g>
			<g>
				<path style="fill:#2F1A31;" d="M678.78,1315.962l-3.102,34.327l-1.391,15.39v0.009l-3.714,40.98l-24.401,269.91l-1.492,16.487
					c-11.737,0.292-23.248,0.585-34.501,0.841l1.911-46.98l10.011-246.855l1.674-41.189l0.348-8.592l0.302-7.41L678.78,1315.962z"/>
			</g>
		</g>
		<g>
			<ellipse style="fill:#74A1BD;" cx="1370.404" cy="1350.287" rx="898.711" ry="89.856"/>
		</g>
		<g>
			<rect x="471.692" y="1308.849" style="fill:#74A1BD;" width="1797.423" height="41.438"/>
		</g>
		<g>
			<ellipse style="fill:#BED5DC;" cx="1370.404" cy="1308.848" rx="898.711" ry="89.856"/>
		</g>
		<g>
			<path style="fill:#42428E;" d="M726.894,1374.366c-0.096,0-0.19-0.006-0.288-0.016c-75.577-7.749-135.977-16.685-179.52-26.557
				c-1.504-0.342-2.447-1.837-2.106-3.341c0.342-1.505,1.842-2.444,3.341-2.105c43.325,9.823,103.501,18.722,178.855,26.449
				c1.534,0.157,2.65,1.527,2.492,3.062C729.521,1373.296,728.308,1374.366,726.894,1374.366z"/>
		</g>
		<g>
			<path style="fill:#42428E;" d="M2116.704,1361.719c-1.351,0-2.538-0.983-2.755-2.36c-0.238-1.522,0.803-2.951,2.326-3.19
				c0.877-0.138,88.052-13.895,120.788-26.425c1.443-0.552,3.055,0.17,3.605,1.609c0.552,1.44-0.169,3.055-1.609,3.605
				c-33.286,12.74-118.315,26.161-121.919,26.727C2116.994,1361.708,2116.848,1361.719,2116.704,1361.719z"/>
		</g>
	</g>
	<g>
		<g>
			<path style="fill:#FFFFFF;" d="M1725.85,680.42c0,0-50.421,50.014-22.13,102.636c28.292,52.622,81.703,40.459,106.443,14.392
				C1834.904,771.379,1725.85,680.42,1725.85,680.42z"/>
		</g>
		<g>
			<path style="fill:#96A7E2;" d="M1819.877,804.653c13.705,4.732,28.933,1.285,39.219-8.933
				c28.858-28.666,83.354-90.979,76.742-147.182c-8.943-76.016-169.92-26.829-212.4,0
				C1682.79,674.212,1664.66,751.062,1819.877,804.653z"/>
		</g>
		<g>
			<path style="fill:#6F4975;" d="M2015.207,1295.11c0,0,11.18-40.674,19.005-41.792c7.825-1.117,159.858-3.354,164.329,0
				c4.472,3.354,19.004,41.104,17.887,41.792C2215.31,1295.799,2138.115,1319.727,2015.207,1295.11z"/>
		</g>
		<g>
			<path style="fill:#8D6096;" d="M2199.787,1254.324c0,4.075-37.504,7.379-83.768,7.379c-46.262,0-83.766-3.304-83.766-7.379
				c0-4.074,37.504-7.378,83.766-7.378C2162.283,1246.946,2199.787,1250.25,2199.787,1254.324z"/>
		</g>
		<g>
			<g>
				<path style="fill:#6F4975;" d="M2098.241,1251.807l-28.505-327.17L1899.88,746.9l8.565-8.822l176.54,171.404l46.327,340.554
					c0,0-1.674,4.012-17.52,4.025C2099.266,1254.073,2098.241,1251.807,2098.241,1251.807z"/>
			</g>
		</g>
		<g>
			<path style="fill:#2F1A31;" d="M1886.642,739.461c0-9.677,7.844-17.521,17.521-17.521s17.522,7.845,17.522,17.521
				c0,9.678-7.845,17.523-17.522,17.523S1886.642,749.139,1886.642,739.461z"/>
		</g>
		<g>
			<path style="fill:#2F1A31;" d="M2054.346,919.419c0-11.682,9.47-21.151,21.15-21.151c11.682,0,21.15,9.47,21.15,21.151
				c0,11.682-9.469,21.15-21.15,21.15C2063.815,940.569,2054.346,931.101,2054.346,919.419z"/>
		</g>
	</g>
	<g>
		<g>
			<g>
				<path style="fill:#436E8E;" d="M846.803,1193.93l-116.614-4.021l-132.171,3.292l-0.343,9.952l127.844-5.555
					c12.848,0.442,22.87,12.211,22.384,26.286l0,0c-0.485,14.074-11.293,25.124-24.141,24.681l-127.501-4.396l-0.254,7.351
					l248.514,8.57c16.679,0.575,30.709-13.769,31.339-32.038l0,0C876.488,1209.781,863.48,1194.505,846.803,1193.93z"/>
			</g>
			<g>
				<path style="fill:#436E8E;" d="M759.244,1224.029L759.244,1224.029c0.631-18.27-12.379-33.546-29.056-34.121l-132.171,3.292
					l-0.343,9.952l127.844-5.555c12.848,0.442,22.87,12.211,22.384,26.286l0,0c-0.485,14.074-11.293,25.124-24.141,24.681
					l-127.501-4.396l-0.254,7.351l131.9,4.549C744.584,1256.643,758.614,1242.299,759.244,1224.029z"/>
			</g>
			<g>
				<path style="fill:#E6EDFF;" d="M725.518,1197.624l-127.843,5.528l0,0c11.532,1.859,15.004,13.58,16.597,19.834
					c3.231,12.682-6.372,19.976-18.006,21.035l-0.006,0.174l127.5,4.397c12.848,0.442,23.657-10.608,24.143-24.682l0,0
					C748.388,1209.836,738.365,1198.068,725.518,1197.624z"/>
			</g>
			<g>
				
					<rect x="665.864" y="1179.441" transform="matrix(0.0345 -0.9994 0.9994 0.0345 -586.9445 1854.3219)" style="fill:#2F1A31;" width="0.696" height="102.973"/>
			</g>
			<g>
				<g>
					<path style="fill:#2F1A31;" d="M746.843,1249.082c-0.448,0-0.889-0.189-1.157-0.538c-0.425-0.553-0.252-1.302,0.384-1.672
						c0.103-0.059,10.156-6.093,11.79-22.986c1.622-16.784-11.938-23.237-12.075-23.3c-0.68-0.313-0.937-1.043-0.577-1.632
						c0.363-0.591,1.204-0.808,1.881-0.499c0.627,0.289,15.317,7.28,13.544,25.633c-1.756,18.146-12.564,24.533-13.024,24.796
						C747.371,1249.019,747.105,1249.083,746.843,1249.082z"/>
				</g>
			</g>
			<g>
				
					<rect x="614.268" y="1222.023" transform="matrix(0.9999 -0.0154 0.0154 0.9999 -18.7315 10.2049)" style="fill:#2F1A31;" width="79.068" height="0.696"/>
			</g>
			<g>
				<g>
					<path style="fill:#2F1A31;" d="M787.98,1246.12c-0.015,0-0.03-0.002-0.047-0.002l-24.925-0.858
						c-0.488-0.018-0.934-0.29-1.17-0.719c-0.236-0.43-0.229-0.951,0.017-1.373c0.045-0.074,4.355-7.518,6.867-17.531
						c2.42-9.639-4.142-19.679-4.207-19.78c-0.289-0.434-0.31-0.992-0.056-1.446c0.254-0.455,0.692-0.687,1.262-0.712l23.648,0.814
						c0.436,0.016,0.842,0.234,1.092,0.594c14.773,21.162-1.259,40.335-1.423,40.526
						C788.774,1245.942,788.386,1246.12,787.98,1246.12z M765.341,1242.557l21.995,0.757c2.342-3.026,13.01-18.522,1.235-36.045
						l-20.44-0.705c1.979,3.774,5.301,11.738,3.29,19.75C769.571,1233.687,766.845,1239.612,765.341,1242.557z"/>
				</g>
			</g>
		</g>
		<g>
			<g>
				<path style="fill:#E28569;" d="M598.929,1252.187l116.684,0.124l131.969,7.986l-0.01,9.958l-127.565-10.094
					c-12.855-0.014-23.289,11.392-23.305,25.475l0,0c-0.015,14.082,10.395,25.51,23.25,25.523l127.575,0.136l-0.007,7.355
					l-248.661-0.266c-16.689-0.018-30.199-14.851-30.18-33.131l0,0C568.697,1266.973,582.241,1252.169,598.929,1252.187z"/>
			</g>
			<g>
				<path style="fill:#E28569;" d="M685.361,1285.377L685.361,1285.377c0.02-18.279,13.564-33.084,30.251-33.066l131.969,7.986
					l-0.01,9.958l-127.565-10.094c-12.855-0.014-23.289,11.392-23.305,25.475l0,0c-0.015,14.083,10.395,25.51,23.25,25.523
					l127.575,0.136l-0.007,7.355l-131.977-0.142C698.854,1318.492,685.343,1303.658,685.361,1285.377z"/>
			</g>
			<g>
				<path style="fill:#E6EDFF;" d="M720.006,1260.188l127.565,10.067l0,0c-11.592,1.447-15.477,13.038-17.291,19.231
					c-3.68,12.559,5.658,20.189,17.247,21.661l-0.001,0.174l-127.575-0.136c-12.855-0.013-23.265-11.44-23.25-25.523l0,0
					C696.717,1271.58,707.15,1260.175,720.006,1260.188z"/>
			</g>
			<g>
				<path style="fill:#2F1A31;" d="M696.779,1314.74c-0.278,0-0.561-0.084-0.805-0.258c-0.447-0.32-10.989-8.066-12.003-29.037
					c-1.025-21.211,13.943-28.744,14.581-29.054c0.691-0.337,1.524-0.05,1.86,0.642c0.336,0.691,0.048,1.523-0.641,1.86
					c-0.587,0.289-13.954,7.112-13.02,26.417c0.493,10.218,3.419,16.992,5.785,20.875c2.559,4.196,5.033,6.015,5.058,6.033
					c0.62,0.449,0.764,1.317,0.317,1.94C697.639,1314.538,697.213,1314.74,696.779,1314.74z"/>
			</g>
			<g>
				<path style="fill:#2F1A31;" d="M667.917,1306.447c-0.004,0-0.008,0-0.012,0l-7.128-0.007c-3.854-0.005-7.316-2.134-9.036-5.557
					c-3.019-6.005-7.014-18.016,0.15-30.998c1.729-3.133,5.096-5.077,8.786-5.077c0.005,0,0.008,0,0.012,0l5.626,0.006
					c3.141,0.003,6.052,1.423,7.987,3.896c1.919,2.45,2.593,5.584,1.851,8.598c-0.823,3.342-0.931,6.483-0.32,9.338
					c0.468,2.196,1.063,4.443,1.766,6.68c0.972,3.09,0.427,6.361-1.495,8.978C674.17,1304.938,671.185,1306.447,667.917,1306.447z
					 M660.678,1267.592c-2.678,0-5.109,1.395-6.349,3.64c-6.549,11.864-2.874,22.887-0.102,28.401
					c1.245,2.479,3.757,4.021,6.553,4.024l7.129,0.007c0.002,0,0.006,0,0.006,0c2.375,0,4.54-1.096,5.945-3.009
					c1.391-1.893,1.786-4.261,1.083-6.494c-0.729-2.319-1.346-4.652-1.833-6.934c-0.698-3.27-0.584-6.831,0.341-10.585
					c0.536-2.177,0.048-4.443-1.341-6.217c-1.405-1.794-3.519-2.826-5.798-2.828l-5.626-0.006
					C660.686,1267.592,660.681,1267.592,660.678,1267.592z"/>
			</g>
		</g>
	</g>
	<g>
		<g>
			<path style="fill:#FFFFFF;" d="M2036.846,971.058c-9.369-14.403-28.922-23.242-30.426-40.358
				c-0.558-6.352,1.553-13.335-1.755-18.787c-3.634-5.989-11.913-6.935-18.883-6.233c-7.665,0.771-15.784,3.104-20.503,9.194
				c-5.942,7.671-4.623,18.473-6.498,27.993c-4.52,22.948-27.121,37.056-47.751,48.079c-10.711,5.724-21.949,11.803-28.46,22.055
				c-11.019,17.353-4.941,39.893-5.861,60.427c-0.729,16.28-6.254,32.315-15.707,45.589c-5.566,7.814-11.34,15.487-17.608,22.751
				c-11.077,12.834-6.386,29.966,9.727,32.414c9.009,1.368,17.824-2.097,21.482-8.022c11.418-18.492,44.872-20.091,57.337-21.881
				c12.463-1.791,25.522-7.969,30.229-19.648c4.435-11.001,0.31-23.564,2.107-35.289c2.493-16.257,15.715-28.431,28.135-39.209
				c10.658-9.25,21.315-18.498,31.974-27.747c4.937-4.283,9.951-8.659,13.389-14.22
				C2044.637,997.057,2043.967,982.002,2036.846,971.058z M2005.187,1009.322c-11.331,12.587-29.261,13.756-44.075,19.79
				c-11.52,4.692-21.472,10.369-34.431,9.757c-8.389-0.397-18.684-2.941-18.937-12.961c-0.438-17.307,23.105-20.344,35.33-21.083
				c7.6-0.46,15.421-1.033,22.242-4.413c5.038-2.496,9.323-6.488,12.17-11.336c1.949-3.319,3.286-7.088,6.003-9.817
				c1.8-1.806,4.126-3.047,6.585-3.72c7.193-1.963,15.497,1.383,19.318,7.785C2014.211,991.398,2011.477,1002.335,2005.187,1009.322
				z"/>
		</g>
		<g>
			<path style="fill:#E28569;" d="M1782.482,1190.809c0,0,17.433,122.434,30.175,123.563c12.74,1.13,60.484,3.688,75.042,0
				c14.557-3.687,22.588-125.323,18.572-128.255C1902.256,1183.186,1777.156,1176.848,1782.482,1190.809z"/>
		</g>
		<g>
			<path style="fill:#E28569;" d="M1902.48,1264.867l-5.673-11.138c15.655-7.983,38.633-23.538,40.698-33.122
				c0.285-1.319,0.08-2.227-0.729-3.236c-10.249-12.811-33.624,1.276-33.859,1.421l-6.557-10.643
				c0.322-0.198,7.975-4.881,17.581-7.259c17.701-4.381,27.497,2.298,32.597,8.673c3.161,3.952,4.263,8.684,3.185,13.682
				C1945.672,1242.023,1909.658,1261.211,1902.48,1264.867z"/>
		</g>
		<g>
			<path style="fill:#D3745E;" d="M1823.103,1250.475c-4.167-22.684,16.855-31.71,32.962-31.71
				c16.107,0,28.145,11.668,28.145,27.776c0,16.107-15.836,33.099-31.942,33.099
				C1836.159,1279.64,1826.012,1266.317,1823.103,1250.475z"/>
		</g>
		<g>
			<path style="fill:#FFFFFF;" d="M1848.841,1275.731c-14.814,0-26.53-11.67-29.848-29.732l0,0
				c-1.517-8.25,0.092-15.287,4.78-20.914c7.135-8.565,19.59-11.617,28.866-11.617c16.71,0,28.838,11.974,28.838,28.47
				C1881.478,1258.677,1865.006,1275.731,1848.841,1275.731z M1820.358,1245.747c3.873,21.084,17.253,28.596,28.482,28.596
				c15.479,0,31.247-16.354,31.247-32.405c0-15.691-11.544-27.081-27.448-27.081c-8.962,0-20.971,2.921-27.8,11.118
				C1820.43,1231.27,1818.921,1237.922,1820.358,1245.747L1820.358,1245.747z"/>
		</g>
	</g>
	<g>
		<g>
			<path style="fill:#436E8E;" d="M664.519,1103.408c0,0,7.336-26.357,36.555-26.861
				C701.074,1076.547,698.683,1112.175,664.519,1103.408z"/>
		</g>
		<g>
			<path style="fill:#2F1A31;" d="M677.712,1120.92c-0.849,0.49-1.949,0.424-2.744-0.243c-0.579-0.488-14.253-12.162-17.102-29.703
				c-0.214-1.309,0.671-2.541,1.983-2.752c1.308-0.214,2.54,0.676,2.752,1.983c2.566,15.801,15.327,26.69,15.456,26.799
				c1.012,0.854,1.145,2.366,0.293,3.381C678.164,1120.605,677.947,1120.785,677.712,1120.92z"/>
		</g>
		<g>
			<path style="fill:#E28569;" d="M712.606,1102.991c4.948,2.678,9.17,7.122,11.937,11.631c9.987,16.271,10.846,40.16,1.718,56.948
				c-9.708,17.855-34.158,26.014-53.136,20.809c-17.941-4.92-32.193-21.236-34.656-39.678c-2.097-15.693,5.326-30.24,21.551-33.674
				c5.663-1.198,12.114-0.169,17.199-3.523c7.891-5.204,14.948-14.491,25.1-15.038
				C705.922,1100.271,709.415,1101.265,712.606,1102.991z"/>
		</g>
	</g>
	<g>
		<g>
			<path style="fill:#2F1A31;" d="M1587.426,983.336c0,0-1.13,4.188-2.614,4.043c-2.396-0.232-2.648-4.021-2.648-4.021
				L1587.426,983.336z"/>
		</g>
		<g>
			<g>
				<path style="fill:#E28569;" d="M1602.836,796.492c-0.062,0-0.121-0.002-0.184-0.006c-1.663-0.099-2.931-1.528-2.831-3.191
					l4.967-83.074c-0.136-0.256-0.894-0.928-2.497-1.246l-15.657-2.118c-1.651-0.225-2.809-1.743-2.585-3.394
					c0.224-1.651,1.74-2.812,3.395-2.585l15.742,2.129c0.052,0.007,0.104,0.016,0.156,0.025c4.684,0.887,7.687,3.893,7.474,7.483
					l-4.971,83.14C1605.749,795.258,1604.42,796.492,1602.836,796.492z"/>
			</g>
		</g>
		<g>
			<path style="fill:#2F1A31;" d="M1564.156,959.539l1.817-264.314c0.032-2.519,3.368-4.563,7.481-4.58l10.13-0.043
				c4.083-0.017,7.425,1.971,7.519,4.472l9.273,263.839L1564.156,959.539z"/>
		</g>
		<g>
			<g>
				<path style="fill:#E28569;" d="M1584.412,690.601l-1.83-16.492c-0.152-1.372-2.017-2.431-4.262-2.422l-1.883,0.008
					c-2.353,0.01-4.256,1.187-4.249,2.628l0.068,16.328L1584.412,690.601z"/>
			</g>
		</g>
		<g>
			<g>
				<path style="fill:#E28569;" d="M1592.502,732.721c0,0-11.106-2.62-26.996,0.114l-0.209,16.838c0,0,14.801-4.423,27.831-0.117
					L1592.502,732.721z"/>
			</g>
		</g>
	</g>
	<g>
		<g>
			<path style="fill:#F7B686;" d="M1666.731,876.229c0,0,11.265,35.715-16.183,43.193c-40.889,11.142-91.987,36.015-93.628,13.074
				c-0.576-8.065,50.626-35.643,50.626-35.643s-70.723,35.275-74.058,15.09c-2.796-16.919,63.547-46.338,63.547-46.338
				s-54.477,19.809-58.925,0.479c-4.709-20.465,57.284-36.732,57.284-36.732s-54.929,18.682-54.485-4.32
				c0.457-23.787,45.078-23.176,63.745-28.973c17.641-5.477,27.653,4.692,32.87,22.943c0,0,15.309,15.852,15.833,28.437
				c0.201,4.824,5.752,7.956,7.286,11.079C1663.58,864.497,1666.731,876.229,1666.731,876.229z"/>
		</g>
	</g>
	<g>
		<g>
			<path style="fill:#E28569;" d="M1259.463,940.779l31.946,330.722c1.25,12.944,11.557,23.156,24.514,24.286l246.255,21.472
				c2.504,0.218,5.026,0.085,7.494-0.395l48.874-9.503c5.165-1.004,9.923-3.497,13.689-7.17l114.081-111.266
				c5.794-5.651,8.745-13.605,8.039-21.669l-22.548-257.691c-1.828-20.896-25.756-31.806-42.73-19.483l-98.87,71.772
				c-2.699,1.961-5.74,3.402-8.965,4.254l-49.392,13.036c-4.795,1.265-9.847,1.185-14.598-0.233l-223.221-66.582
				C1275.677,906.854,1257.622,921.713,1259.463,940.779z"/>
		</g>
		<g>
			<path style="fill:#BC614B;" d="M1524.52,981.078l61.603-16.259l40.34,341.002c0,0-15.127,23.532-60.51,11.767L1524.52,981.078z"
				/>
		</g>
		<g>
			<g>
				<path style="fill:#FFFFFF;" d="M1310.405,917.212c0,0,19.121-13.319,63.243-4.495c44.123,8.825,109.676,28.365,136.148,31.516
					c26.474,3.152,36.559,15.128,36.559,15.128s-7.845-20.354,23.496-31.293c31.341-10.938,88.706-43.629,107.975-29.818
					l-91.704,66.57l-61.603,16.259L1310.405,917.212z"/>
			</g>
		</g>
		<g>
			<g>
				<path style="fill:#FFFFFF;" d="M1543.872,959.794c-0.024-0.122-2.887-12.289-37.479-19.334
					c-8.452-1.722-19.971-4.832-33.308-8.433c-44.94-12.136-112.856-30.474-145.365-16.571l-1.982-4.637
					c34.116-14.588,103.048,4.023,148.663,16.34c13.254,3.58,24.702,6.67,32.999,8.359c38.074,7.753,41.218,21.889,41.45,23.475
					l-4.988,0.734l2.494-0.368L1543.872,959.794z"/>
			</g>
		</g>
	</g>
	<g>
		<g>
			<g>
				<path style="fill:#F7B686;" d="M1254.789,1303.791l1.748-106.854c0.238-14.601-10.996-26.842-25.562-27.885
					c-74.072-5.3-125.924-28.272-154.331-68.445c-39.443-55.78-35.281-142.422-24.292-202.508
					c5.624-30.748-4.524-51.314-41.666-71.021c0,0-31.958-17.58-71.355-24.289c-15.784-2.689-31.452,3.654-35.523,19.139
					c-6.373,24.234-14.622,61.936-18.56,106.299c-9.346,105.366,10.978,197.021,58.775,265.056
					c58.664,83.502,153.23,129.702,281.36,137.552C1241.112,1331.798,1254.531,1319.55,1254.789,1303.791z"/>
			</g>
		</g>
		<g style="opacity:0.5;">
			<path style="fill:#E08B65;" d="M982.461,1165.363c-10.495,0.001-22.565-6.191-31.456-17.231l0,0
				c-6.24-7.748-10.057-16.743-10.749-25.327c-0.733-9.095,2.086-16.697,7.935-21.406c5.849-4.711,13.875-5.845,22.605-3.188
				c8.239,2.505,16.214,8.152,22.455,15.901c13.197,16.39,14.461,37.355,2.813,46.734
				C992.264,1163.908,987.547,1165.362,982.461,1165.363z M961.894,1103.979c-3.583,0-6.738,1.01-9.209,3
				c-3.944,3.177-5.822,8.593-5.287,15.25c0.578,7.166,3.84,14.769,9.188,21.409l0,0c10.539,13.086,26.561,18.411,34.985,11.626
				c8.424-6.785,6.638-23.572-3.901-36.659c-5.348-6.64-12.08-11.448-18.959-13.54
				C966.323,1104.34,964.032,1103.979,961.894,1103.979z"/>
		</g>
		<g>
			<g>
				<g>
					<path style="fill:#F7B686;" d="M1203.776,1162.275c0,0,26.012-78.73,70.556-98.009c44.543-19.276,116.016-10.225,90.941,7.588
						c-25.072,17.813-63.398,31.723-63.398,31.723s83.278-25.867,80.893-3.771c-2.385,22.095-75.029,43.895-75.029,43.895
						s101.549-22.885,92.537-2.741c-9.012,20.143-86.278,36.981-86.278,36.981s95.332-17.517,84.315,5.637
						c-11.016,23.152-78.874,13.965-81.26,36.06c-2.385,22.097-19.332,109.056-81.561,109.926L1203.776,1162.275z"/>
				</g>
			</g>
			<g>
				<path style="fill:#DD8964;" d="M1272.186,1121.874l-3.236-1.538c6.853-14.417,31.604-18.369,32.653-18.53l0.544,3.542
					C1301.908,1105.385,1278.223,1109.173,1272.186,1121.874z"/>
			</g>
			<g>
				<path style="fill:#DD8964;" d="M1271.79,1165.704l-2.869-2.146c13.516-18.077,37.562-21.496,38.579-21.633l0.478,3.551
					C1307.744,1145.509,1284.391,1148.854,1271.79,1165.704z"/>
			</g>
			<g>
				<path style="fill:#DD8964;" d="M1280.564,1198.229l-3.354-1.259c6.005-15.988,35.275-20.609,36.518-20.798l0.538,3.541
					C1313.983,1179.756,1285.833,1184.204,1280.564,1198.229z"/>
			</g>
		</g>
	</g>
	<g>
		<path style="fill:#2F1A31;" d="M1755.354,1701.715l-1.789-0.382c0.045-0.214,4.555-21.857,3.276-51.702
			c-1.179-27.508-7.657-67.815-31.831-103.626c-41.908-62.082-136.857-86.929-137.812-87.173l0.453-1.773
			c0.24,0.063,24.362,6.299,53.37,20.178c48.556,23.231,73.299,49.663,85.505,67.744c24.424,36.183,30.961,76.867,32.145,104.626
			C1759.953,1679.67,1755.399,1701.497,1755.354,1701.715z"/>
	</g>
</g>
</svg>
